<?xml version="1.0" encoding="UTF-8" standalone="no"?>
<!-- Created with Inkscape (http://www.inkscape.org/) -->

<svg
   version="1.1"
   id="svg1"
   width="512"
   height="512"
   viewBox="0 0 512 512"
   sodipodi:docname="media-like.svg"
   inkscape:version="1.3.2 (091e20ef0f, 2023-11-25, custom)"
   xmlns:inkscape="http://www.inkscape.org/namespaces/inkscape"
   xmlns:sodipodi="http://sodipodi.sourceforge.net/DTD/sodipodi-0.dtd"
   xmlns="http://www.w3.org/2000/svg"
   xmlns:svg="http://www.w3.org/2000/svg">
  <defs
     id="defs1" />
  <sodipodi:namedview
     id="namedview1"
     pagecolor="#ffffff"
     bordercolor="#000000"
     borderopacity="0.25"
     inkscape:showpageshadow="2"
     inkscape:pageopacity="0.0"
     inkscape:pagecheckerboard="0"
     inkscape:deskcolor="#d1d1d1"
     inkscape:zoom="1.5703125"
     inkscape:cx="256"
     inkscape:cy="256"
     inkscape:window-width="1920"
     inkscape:window-height="1008"
     inkscape:window-x="0"
     inkscape:window-y="0"
     inkscape:window-maximized="1"
     inkscape:current-layer="g1" />
  <g
     inkscape:groupmode="layer"
     inkscape:label="Image"
     id="g1">
    <path
       style="fill:#000000;stroke-width:0.970436"
       d="M 82.695317,435.38621 C 62.841088,416.11148 47.168856,400.09305 45.066164,396.92583 32.974576,378.71264 36.222038,350.05756 51.6477,338.85142 c 10.112764,-7.34655 20.441121,-9.27501 31.222326,-5.82978 8.763759,2.80057 13.841999,7.11947 22.685194,19.29309 11.1657,15.37083 13.65878,15.51673 23.75146,1.38995 8.66758,-12.13207 11.6534,-15.08219 19.10891,-18.88048 5.50027,-2.80219 7.05102,-3.13356 14.68458,-3.13801 7.73508,-0.006 9.12453,0.30047 14.82715,3.25407 7.85572,4.06878 14.92743,11.92155 17.90908,19.88705 1.71636,4.5853 2.14252,7.69498 2.14808,15.67403 0.007,11.27256 -1.90836,18.33616 -7.24012,26.68924 -3.17015,4.96656 -71.22438,71.4076 -73.02324,71.29226 -0.5501,-0.0352 -16.31171,-14.92876 -35.025803,-33.09663 z m 42.523983,2.97208 c 4.89785,-4.9374 5.55741,-8.6373 2.31322,-12.97642 -3.18956,-4.26608 -7.7114,-3.65783 -12.82829,1.72556 -4.94709,5.20476 -5.50302,9.23166 -1.81073,13.11625 3.61766,3.80609 7.24421,3.25724 12.3258,-1.86539 z m 33.87212,-35.25803 c 7.25597,-7.5276 13.71685,-14.95618 14.35748,-16.50794 2.37943,-5.76346 -0.81618,-11.01451 -6.70309,-11.01451 -3.04249,0 -4.57911,1.31573 -17.45596,14.94671 -12.59127,13.32867 -14.11979,15.30979 -14.11979,18.30075 0,4.60349 3.13026,7.96156 7.42147,7.96156 2.97885,0 4.61696,-1.35879 16.49989,-13.68657 z m 165.80781,32.28595 c -19.85423,-19.27473 -35.52646,-35.29316 -37.62916,-38.46038 -12.09159,-18.21319 -8.84412,-46.86827 6.58153,-58.07441 10.11277,-7.34655 20.44114,-9.27501 31.22233,-5.82978 8.76377,2.80057 13.84201,7.11947 22.6852,19.29309 11.22455,15.45183 13.63025,15.55667 23.99746,1.04564 8.72582,-12.2136 11.23644,-14.68263 18.86291,-18.55038 5.49003,-2.78429 7.06524,-3.11937 14.68458,-3.1238 7.73507,-0.006 9.12452,0.30047 14.82714,3.25407 7.85572,4.06878 14.92745,11.92155 17.90909,19.88705 1.71635,4.5853 2.14253,7.69498 2.14807,15.67403 0.007,11.27256 -1.90836,18.33616 -7.2401,26.68924 -3.17016,4.96656 -71.2244,71.4076 -73.02324,71.29226 -0.55012,-0.0352 -16.31172,-14.92876 -35.02581,-33.09663 z m 42.52399,2.97208 c 4.89784,-4.9374 5.55741,-8.6373 2.3132,-12.97642 -3.18956,-4.26608 -7.7114,-3.65783 -12.82828,1.72556 -4.9471,5.20476 -5.50301,9.23166 -1.81074,13.11625 3.61767,3.80609 7.24423,3.25724 12.32582,-1.86539 z m 33.87211,-35.25803 c 7.25598,-7.5276 13.71684,-14.95618 14.35749,-16.50794 2.37943,-5.76346 -0.81618,-11.01451 -6.70309,-11.01451 -3.04251,0 -4.57913,1.31573 -17.45598,14.94671 -12.59125,13.32867 -14.11977,15.30979 -14.11977,18.30075 0,4.60349 3.13025,7.96156 7.42147,7.96156 2.97884,0 4.61694,-1.35879 16.49988,-13.68657 z M 191.6075,324.62354 c -5.32741,-3.8086 -12.81034,-7.05743 -19.39385,-8.42012 l -5.82199,-1.20507 v -97.69464 c 0,-105.25077 -0.22269,-100.32557 4.6607,-103.0752 0.94891,-0.5343 59.57401,-13.79941 130.27798,-29.478015 l 128.55269,-28.506556 3.31136,1.84969 c 2.2025,1.230274 3.68955,3.015892 4.44063,5.332174 0.85118,2.624959 1.1424,35.529843 1.18264,133.629337 0.0293,71.58078 -0.27352,130.14687 -0.67309,130.14687 -0.39956,0 -2.34949,-1.16032 -4.33317,-2.57847 -5.32739,-3.8086 -12.81034,-7.05743 -19.39385,-8.42012 l -5.82199,-1.20507 -0.0143,-98.66266 c -0.0143,-105.63247 0.14604,-102.08849 -4.77038,-104.99177 -2.19102,-1.29383 -10.8037,0.44881 -102.63916,20.76745 -79.98716,17.6972 -100.67766,22.58825 -102.37618,24.20082 l -2.12874,2.02104 v 84.43438 c 0,46.43891 -0.32692,84.4344 -0.72649,84.4344 -0.39958,0 -2.34949,-1.16032 -4.33317,-2.57847 z"
       id="path1" />
  </g>
</svg>
